PathFileType	4	(X/Y/Z)	C:\Users\Basilio\Documents\Thesis Gigler\squatting_fais\c3dfiles\077\SJ_pre5\markers_experimental.trc
DataRate	CameraRate	NumFrames	NumMarkers	Units	OrigDataRate	OrigDataStartFrame	OrigNumFrames
200.000000	200.000000	4	60	mm	200.000000	847	1356
Frame#	Time	FHD			LBHD			RBHD			C7			T10			CLAV			LSHO			LUUPA			LMUPA			LDUPA			LLEP			LMEP			LRAD			LUL			LRFIN			RSHO			RUPA1			RMUPA			RDUPA			RLEP			RMEP			RRAD			RUL			RUFIN			LASI			RASI			USACR			LSACR			RSACR			LTHI2			LTHI3			LTHI4			LLFC			LMFC			LTIB1			LTIB2			LTIB3			LTIB4			LLMAL			LHEE			LMT1			LMT2			LMT5			RTHI			RTHI2			RTHI3			RTHI4			RLFC			RMFC			RTIB1			RTIB2			RTIB3			RTIB4			RLMAL			RMMAL			RHEE			RMT1			RMT2			RMT5			LTHI1			
		X1	Y1	Z1	X2	Y2	Z2	X3	Y3	Z3	X4	Y4	Z4	X5	Y5	Z5	X6	Y6	Z6	X7	Y7	Z7	X8	Y8	Z8	X9	Y9	Z9	X10	Y10	Z10	X11	Y11	Z11	X12	Y12	Z12	X13	Y13	Z13	X14	Y14	Z14	X15	Y15	Z15	X16	Y16	Z16	X17	Y17	Z17	X18	Y18	Z18	X19	Y19	Z19	X20	Y20	Z20	X21	Y21	Z21	X22	Y22	Z22	X23	Y23	Z23	X24	Y24	Z24	X25	Y25	Z25	X26	Y26	Z26	X27	Y27	Z27	X28	Y28	Z28	X29	Y29	Z29	X30	Y30	Z30	X31	Y31	Z31	X32	Y32	Z32	X33	Y33	Z33	X34	Y34	Z34	X35	Y35	Z35	X36	Y36	Z36	X37	Y37	Z37	X38	Y38	Z38	X39	Y39	Z39	X40	Y40	Z40	X41	Y41	Z41	X42	Y42	Z42	X43	Y43	Z43	X44	Y44	Z44	X45	Y45	Z45	X46	Y46	Z46	X47	Y47	Z47	X48	Y48	Z48	X49	Y49	Z49	X50	Y50	Z50	X51	Y51	Z51	X52	Y52	Z52	X53	Y53	Z53	X54	Y54	Z54	X55	Y55	Z55	X56	Y56	Z56	X57	Y57	Z57	X58	Y58	Z58	X59	Y59	Z59	X60	Y60	Z60	

848	4.235	-89.32688903808595	2097.224609375	-907.8394775390627	-237.4739227294922	1999.161743164063	-972.137878417969	-244.9063262939454	2002.917358398438	-826.2641601562502	-299.6976623535157	1898.961669921875	-895.732360839844	-374.9331359863282	1565.689086914063	-882.654479980469	-140.4633941650391	1820.965576171875	-893.9584960937502	-182.3769836425782	1873.957153320313	-1070.64013671875	-225.0669250488282	1757.513916015625	-1250.063598632813	-198.4241790771485	1713.937377929688	-1251.828369140625	-239.1147918701172	1709.872924804688	-1298.058471679688	-244.3762512207032	1648.30810546875	-1333.494262695313	-329.5936279296876	1647.010864257813	-1311.526977539063	-286.3883972167969	1437.962768554688	-1111.261840820313	-259.1266479492188	1382.494018554688	-1163.178466796875	-245.7660217285157	1400.330810546875	-1054.566772460938	-139.845703125	1880.541748046875	-721.0842285156251	-205.6881866455079	1759.07568359375	-537.7412109375001	-191.5486145019532	1711.363403320313	-543.1454467773439	-228.3550720214844	1706.504638671875	-496.7000427246095	-246.860580444336	1644.042114257813	-466.5039062500001	-334.0841674804688	1650.792358398438	-488.1671142578126	-304.0018005371094	1417.219116210938	-652.4498291015626	-250.3402709960938	1374.494995117188	-607.0892944335939	-252.5474395751954	1398.212646484375	-708.7069702148439	-220.3892974853516	1367.396240234375	-1027.357543945313	-211.3688507080079	1362.671630859375	-751.2926635742189	-398.480194091797	1455.010498046875	-883.0045166015627	-413.3483886718751	1429.305908203125	-912.4674072265627	-412.9530334472657	1423.392700195313	-858.1831665039065	-319.9851074218751	1060.59521484375	-1119.9580078125	-271.2814025878907	1058.9912109375	-1125.43017578125	-348.9815368652344	1010.616149902344	-1103.881469726563	-334.8401489257813	862.6757812500002	-1111.02197265625	-292.4053039550782	817.9338378906252	-987.5517578125002	-293.2970886230469	633.1721191406251	-1101.48828125	-345.5725708007813	602.8689575195314	-1168.908203125	-304.9229736328126	595.3001098632814	-1147.04638671875	-303.9046020507813	510.7483215332032	-1134.006958007813	-380.8557434082032	402.4064025878907	-1175.277221679688	-423.0416870117189	380.7247924804688	-1110.955078125	-247.0303955078126	267.8795471191407	-1161.233642578125	-255.3179168701172	271.8494873046876	-1202.093872070313	-321.3027648925782	392.2258911132814	-1110.744384765625	-325.7849426269532	1011.278137207031	-674.2645874023439	-287.1416015625001	957.2868652343752	-657.7130737304689	-253.4144287109376	959.323913574219	-657.1637573242189	-309.6749877929688	880.1275634765627	-671.2836303710939	-302.2260742187501	813.6075439453127	-665.5010375976564	-236.115463256836	795.4262695312502	-777.8091430664065	-263.3351745605469	673.1352539062501	-666.0390014648439	-338.8971557617188	603.3818359375001	-641.1666870117189	-293.7400817871094	592.6572265625001	-651.0895996093751	-287.1760559082032	545.3542480468751	-687.2036132812501	-386.5223083496095	375.8232727050782	-653.8819580078126	-337.0526428222657	375.6491394042969	-732.4439697265626	-438.5147399902345	369.0786437988282	-725.1751098632814	-249.7422637939454	251.0059661865235	-684.1411743164064	-260.7994995117188	247.6723022460938	-648.1983032226564	-299.9762878417969	223.9169921875001	-616.8282470703126	-340.5063781738282	1141.294067382813	-1105.001098632813	
849	4.24	-90.40264129638673	2098.458984375	-908.104675292969	-238.5602722167969	2000.133422851563	-972.1758422851565	-245.7279052734376	2004.788818359375	-826.5364990234377	-301.0705871582032	1899.58251953125	-895.7971801757815	-375.1846313476563	1565.382690429688	-883.043884277344	-141.406723022461	1822.367309570313	-894.0862426757815	-183.4677734375	1875.236694335938	-1070.626708984375	-225.9039459228516	1758.963256835938	-1249.958374023438	-199.6771392822266	1715.427856445313	-1251.705078125	-238.9744262695313	1711.12841796875	-1297.95068359375	-245.4409179687501	1649.721923828125	-1333.322998046875	-330.4111938476563	1648.01025390625	-1311.138427734375	-286.2359924316407	1439.009155273438	-1111.147583007813	-258.8809509277344	1383.570678710938	-1163.113159179688	-245.1108398437501	1401.532958984375	-1055.002563476563	-141.0250244140625	1881.75537109375	-720.7636108398439	-207.2427673339844	1760.578002929688	-537.4848022460939	-192.7087554931641	1712.850830078125	-542.6231689453126	-229.7287292480469	1707.950317382813	-496.4414367675782	-248.0707092285157	1645.20703125	-466.3390197753907	-335.1292419433594	1651.890258789063	-488.0824279785157	-304.0466308593751	1418.354248046875	-652.3169555664064	-250.2599639892579	1375.807861328125	-606.6652221679689	-251.8788604736329	1399.5380859375	-708.0976562500001	-220.3739776611329	1368.761474609375	-1027.02587890625	-210.6194763183594	1363.323974609375	-750.4525756835939	-398.4495849609376	1455.027099609375	-882.9646606445315	-413.2228088378907	1429.371826171875	-912.432800292969	-412.687469482422	1423.471313476563	-858.0660400390627	-320.2764892578126	1061.966918945313	-1120.036743164063	-271.5271606445313	1059.776733398438	-1125.257690429688	-349.5784301757813	1012.073059082031	-1103.892944335938	-336.9957885742188	863.9868164062502	-1110.624633789063	-293.6814880371094	818.6470336914065	-987.9282836914065	-294.4169311523438	634.4813232421876	-1102.164794921875	-347.5818176269532	604.1044311523439	-1169.021606445313	-306.5608215332032	596.8900146484376	-1147.782104492188	-304.7424316406251	512.1072387695314	-1135.228149414063	-381.3388977050782	403.5819091796876	-1175.615966796875	-422.5244750976564	379.5160522460938	-1110.752075195313	-244.7188873291016	271.6267395019532	-1165.5126953125	-254.2100830078126	276.0724487304688	-1206.621704101563	-320.8173828125001	393.5796508789064	-1112.05859375	-326.2461547851563	1012.362548828125	-675.5614013671876	-288.1862487792969	957.9908447265627	-658.1620483398439	-254.5001068115235	959.892028808594	-657.0437622070314	-311.0380554199219	880.9382934570315	-672.2828369140626	-303.4441528320313	814.9724121093752	-665.6532592773439	-237.0977172851563	796.0394287109377	-777.8157348632815	-264.1597595214844	674.1975708007814	-665.5803833007814	-340.1118774414063	604.4288330078126	-640.8710327148439	-294.8465576171876	593.7243041992189	-650.6254272460939	-288.0375976562501	546.2833251953126	-686.8007812500001	-387.1953430175782	377.1295166015626	-653.2212524414064	-337.7292480468751	376.4665527343751	-731.8143920898439	-439.8008422851564	368.9878845214844	-724.3095703125001	-249.2543640136719	253.5454864501954	-682.1920776367189	-260.0166625976563	250.5097656250001	-646.1758422851564	-298.8529357910157	226.9259185791016	-614.2675781250001	-340.7241821289063	1142.653564453125	-1104.972045898438	
850	4.245	-91.26746368408205	2099.552001953125	-908.3950195312502	-239.6248168945313	2000.64306640625	-972.142517089844	-246.7557373046876	2005.32177734375	-826.563415527344	-302.2340393066407	1899.804931640625	-895.8482666015627	-375.5128784179688	1564.840209960938	-883.3294067382815	-142.2326354980469	1823.495239257813	-894.178161621094	-184.4131011962891	1876.235717773438	-1070.477416992188	-226.6627655029297	1759.93505859375	-1249.77490234375	-200.0625152587891	1716.258544921875	-1251.59765625	-240.0541381835938	1712.112182617188	-1297.70849609375	-246.5091400146485	1650.758544921875	-1333.244995117188	-331.4442443847657	1648.814575195313	-1310.929321289063	-285.8072814941407	1439.910278320313	-1111.052124023438	-258.5719604492188	1384.515014648438	-1162.911254882813	-245.0526123046876	1402.848876953125	-1054.498657226563	-142.2979125976563	1882.713623046875	-720.6423339843751	-208.936019897461	1761.779907226563	-537.2621459960939	-193.8769531250001	1713.890747070313	-542.1356811523439	-231.1662292480469	1708.9501953125	-496.124481201172	-249.2003479003907	1646.360473632813	-465.9247131347657	-336.1838378906251	1652.64013671875	-488.1109619140626	-301.2751464843751	1419.60693359375	-651.8405761718751	-250.4293365478516	1376.504272460938	-606.3964843750001	-251.7519989013672	1400.556030273438	-708.2752685546876	-219.9629821777344	1369.957275390625	-1026.884765625	-209.8279266357422	1363.926879882813	-749.5697631835939	-398.3515625000001	1454.820434570313	-882.878356933594	-413.0188293457032	1429.24560546875	-912.3282470703127	-412.3771362304689	1423.366943359375	-857.9619140625002	-319.8299560546876	1062.830444335938	-1120.105834960938	-271.7249145507813	1060.448974609375	-1125.081665039063	-350.2478332519532	1012.973083496094	-1103.94140625	-339.0115966796876	864.7122802734377	-1110.27392578125	-294.7496337890626	819.149841308594	-988.452087402344	-295.9219360351563	635.7922363281251	-1103.34716796875	-349.3721008300782	604.9906005859376	-1169.212646484375	-308.1497192382813	597.9979248046876	-1148.5029296875	-305.7045288085938	513.3411865234376	-1136.336547851563	-381.3868103027344	403.9161682128907	-1176.059204101563	-421.8782958984376	378.3546142578126	-1110.672607421875	-242.481430053711	274.9946289062501	-1170.136962890625	-252.8911285400391	280.0581665039063	-1210.855834960938	-320.3919677734376	394.5517883300782	-1113.364379882813	-326.7248535156251	1013.120239257813	-676.4351806640626	-289.3213806152344	958.4759521484377	-658.6929931640626	-255.6632843017579	960.3034667968752	-656.7835693359376	-312.2864379882813	881.7540283203127	-673.3084716796876	-304.9505310058594	815.8626098632815	-665.7724609375001	-237.6980590820313	796.0510864257815	-777.8248291015627	-265.1156616210938	675.0560302734376	-665.0470581054689	-341.2405090332032	605.4182128906251	-640.7269287109376	-295.9087829589844	594.6452026367189	-650.2943725585939	-288.9807739257813	547.0486450195314	-686.1879882812501	-387.7928466796876	377.9410400390626	-652.4295043945314	-338.6889343261719	377.3262939453126	-731.2821655273439	-440.7645874023439	368.0378723144532	-723.3900756835939	-248.7683410644532	255.6541290283204	-680.1488037109376	-259.2171325683594	253.1846008300782	-643.7601928710939	-297.6599731445313	229.3521575927735	-611.6271362304689	-340.6535644531251	1143.571044921875	-1105.034423828125	
851	4.25	-92.15283203125001	2100.276123046875	-908.6565551757815	-240.8033142089844	2000.752807617188	-972.201354980469	-247.6931915283204	2006.047485351563	-826.6548461914065	-303.3309020996094	1899.941040039063	-895.8634033203127	-375.6261291503907	1564.059448242188	-883.675720214844	-143.0867462158203	1824.298950195313	-894.2735595703127	-185.3071746826172	1877.095581054688	-1070.3046875	-227.6576690673829	1760.740844726563	-1249.593994140625	-201.3475494384766	1717.267578125	-1251.323852539063	-241.0726928710938	1712.837036132813	-1297.584594726563	-247.2152404785157	1651.38818359375	-1332.997680664063	-332.4927978515626	1649.258666992188	-1310.779174804688	-285.8833312988282	1440.3427734375	-1110.901000976563	-258.3497314453126	1385.05712890625	-1162.842041015625	-245.0517272949219	1403.968017578125	-1054.289672851563	-143.4875183105469	1883.296020507813	-720.5584106445314	-210.5205993652344	1762.970581054688	-536.9462280273439	-195.2039642333985	1714.995483398438	-541.5712280273439	-232.5437927246094	1709.931030273438	-495.4034118652345	-250.3904418945313	1647.134887695313	-465.6522216796876	-337.2511291503907	1653.041015625	-488.1158752441407	-301.5050964355469	1420.140747070313	-651.6618652343751	-250.6513671875001	1377.2587890625	-606.1647338867189	-251.4401550292969	1401.114624023438	-707.9389648437501	-219.2040252685547	1370.525512695313	-1026.825561523438	-209.6575012207032	1364.154052734375	-749.5272827148439	-398.3162231445314	1454.550048828125	-882.749938964844	-412.896697998047	1428.939575195313	-912.132995605469	-412.0338439941407	1423.04638671875	-857.8184814453127	-320.1620483398438	1063.435180664063	-1120.200439453125	-272.0257873535157	1060.973754882813	-1124.828857421875	-350.9230957031251	1013.837707519531	-1104.009643554688	-341.7867126464844	865.5542602539065	-1110.055053710938	-295.7297058105469	819.2868652343752	-988.8399047851565	-296.5018920898438	636.3054809570314	-1103.905517578125	-351.4484863281251	605.9199218750001	-1169.407348632813	-309.6169738769532	599.0615844726564	-1149.293334960938	-306.1333312988282	514.0448608398439	-1136.931274414063	-382.2469787597657	404.3269653320314	-1176.412109375	-421.1649475097657	376.7789916992188	-1110.584228515625	-240.7496948242188	277.9818420410157	-1174.607543945313	-251.5065002441407	283.5505676269532	-1215.009399414063	-319.7247924804688	395.4950256347657	-1114.743896484375	-327.2403869628907	1013.630249023438	-677.2650756835939	-290.4022216796876	959.0056762695315	-659.0796508789064	-256.8541870117188	960.4768676757815	-656.6577148437501	-313.6419677734376	882.051940917969	-674.6218261718751	-306.4938659667969	816.5979003906252	-665.9877929687501	-238.5430603027344	795.8525390625002	-777.8166503906252	-266.0039978027344	675.7019653320314	-664.8160400390626	-342.3951110839844	606.0270996093751	-640.4481201171876	-297.1185913085938	595.2388916015626	-649.8724365234376	-289.7822265625001	547.5373535156251	-685.3474121093751	-388.2978820800782	378.4810485839844	-651.7426147460939	-339.3437500000001	377.8458557128907	-730.6586303710939	-441.4888610839845	366.5805664062501	-722.5300292968751	-248.056869506836	257.9499816894532	-677.7039184570314	-258.3991394042969	255.6949768066407	-641.2830200195314	-296.6002197265626	231.9553985595704	-608.7005004882814	-340.1933593750001	1144.09375	-1105.002197265625	
